<svg width="101" height="100" viewBox="0 0 101 100" fill="none" xmlns="http://www.w3.org/2000/svg">
<path d="M28.625 25H23.9375C20.6223 25 17.4429 23.683 15.0987 21.3388C12.7545 18.9946 11.4375 15.8152 11.4375 12.5C11.4375 12.0856 11.6021 11.6882 11.8951 11.3951C12.1882 11.1021 12.5856 10.9375 13 10.9375H17.6875C21.0027 10.9375 24.1821 12.2545 26.5263 14.5987C28.8705 16.9429 30.1875 20.1223 30.1875 23.4375C30.1875 23.8519 30.0229 24.2493 29.7299 24.5424C29.4368 24.8354 29.0394 25 28.625 25ZM14.6875 14.0625C15.0569 16.2481 16.1888 18.232 17.8822 19.6623C19.5756 21.0925 21.7209 21.8764 23.9375 21.875H26.9375C26.5681 19.6894 25.4362 17.7055 23.7428 16.2752C22.0494 14.845 19.9041 14.0611 17.6875 14.0625H14.6875Z" fill="url(#paint0_linear_16_199)"/>
<path d="M33.3125 29.6875H28.625C28.2106 29.6875 27.8132 29.5229 27.5201 29.2299C27.2271 28.9368 27.0625 28.5394 27.0625 28.125C27.0625 24.8098 28.3795 21.6304 30.7237 19.2862C33.0679 16.942 36.2473 15.625 39.5625 15.625H44.25C44.6644 15.625 45.0618 15.7896 45.3549 16.0826C45.6479 16.3757 45.8125 16.7731 45.8125 17.1875C45.8125 20.5027 44.4955 23.6821 42.1513 26.0263C39.8071 28.3705 36.6277 29.6875 33.3125 29.6875ZM30.3125 26.5625H33.3125C35.5291 26.5639 37.6744 25.78 39.3678 24.3498C41.0612 22.9195 42.1931 20.9356 42.5625 18.75H39.5625C37.3459 18.7486 35.2006 19.5325 33.5072 20.9627C31.8138 22.393 30.6819 24.3769 30.3125 26.5625Z" fill="url(#paint1_linear_16_199)"/>
<path d="M28.625 62.5C28.2106 62.5 27.8132 62.3354 27.5201 62.0424C27.2271 61.7493 27.0625 61.3519 27.0625 60.9375V21.875C27.0625 21.4606 27.2271 21.0632 27.5201 20.7701C27.8132 20.4771 28.2106 20.3125 28.625 20.3125C29.0394 20.3125 29.4368 20.4771 29.7299 20.7701C30.0229 21.0632 30.1875 21.4606 30.1875 21.875V60.9375C30.1875 61.3519 30.0229 61.7493 29.7299 62.0424C29.4368 62.3354 29.0394 62.5 28.625 62.5Z" fill="url(#paint2_linear_16_199)"/>
<path d="M28.6251 88.7344C26.1546 88.7333 23.7399 88.0001 21.6858 86.6275C19.6317 85.2549 18.0304 83.3043 17.0842 81.0223C16.1379 78.7402 15.8891 76.2289 16.3691 73.8055C16.8492 71.3821 18.0366 69.1553 19.7813 67.4063L27.5157 59.5938C27.661 59.4473 27.8338 59.3311 28.0242 59.2518C28.2146 59.1724 28.4188 59.1316 28.6251 59.1316C28.8314 59.1316 29.0356 59.1724 29.226 59.2518C29.4164 59.3311 29.5892 59.4473 29.7345 59.5938L37.4688 67.4063C39.8113 69.7502 41.1271 72.9284 41.1271 76.2422C41.1271 79.556 39.8113 82.7342 37.4688 85.0782C36.3071 86.2386 34.9281 87.1588 33.4107 87.7861C31.8933 88.4135 30.2671 88.7357 28.6251 88.7344ZM28.6251 62.9844L22.0001 69.6094C20.6878 70.9201 19.7938 72.5905 19.4311 74.4094C19.0684 76.2283 19.2534 78.1139 19.9626 79.8276C20.6718 81.5414 21.8734 83.0062 23.4154 84.0369C24.9574 85.0675 26.7704 85.6177 28.6251 85.6177C30.4798 85.6177 32.2928 85.0675 33.8348 84.0369C35.3767 83.0062 36.5783 81.5414 37.2876 79.8276C37.9968 78.1139 38.1818 76.2283 37.8191 74.4094C37.4564 72.5905 36.5624 70.9201 35.2501 69.6094L28.6251 62.9844Z" fill="url(#paint3_linear_16_199)"/>
<path d="M29.4062 81.25H25.5C25.0856 81.25 24.6882 81.0854 24.3951 80.7924C24.1021 80.4993 23.9375 80.1019 23.9375 79.6875C23.9375 79.2731 24.1021 78.8757 24.3951 78.5826C24.6882 78.2896 25.0856 78.125 25.5 78.125H29.4062C29.6135 78.125 29.8122 78.0427 29.9587 77.8962C30.1052 77.7497 30.1875 77.551 30.1875 77.3438C30.1875 77.1365 30.1052 76.9378 29.9587 76.7913C29.8122 76.6448 29.6135 76.5625 29.4062 76.5625H27.8438C26.8077 76.5625 25.8142 76.151 25.0816 75.4184C24.3491 74.6858 23.9375 73.6923 23.9375 72.6562C23.9375 71.6202 24.3491 70.6267 25.0816 69.8941C25.8142 69.1615 26.8077 68.75 27.8438 68.75H31.75C32.1644 68.75 32.5618 68.9146 32.8549 69.2076C33.1479 69.5007 33.3125 69.8981 33.3125 70.3125C33.3125 70.7269 33.1479 71.1243 32.8549 71.4174C32.5618 71.7104 32.1644 71.875 31.75 71.875H27.8438C27.6365 71.875 27.4378 71.9573 27.2913 72.1038C27.1448 72.2503 27.0625 72.449 27.0625 72.6562C27.0625 72.8635 27.1448 73.0622 27.2913 73.2087C27.4378 73.3552 27.6365 73.4375 27.8438 73.4375H29.4062C30.4423 73.4375 31.4358 73.849 32.1684 74.5816C32.9009 75.3142 33.3125 76.3077 33.3125 77.3438C33.3125 78.3798 32.9009 79.3733 32.1684 80.1059C31.4358 80.8385 30.4423 81.25 29.4062 81.25Z" fill="url(#paint4_linear_16_199)"/>
<path d="M28.625 71.875C28.2106 71.875 27.8132 71.7104 27.5201 71.4173C27.2271 71.1243 27.0625 70.7269 27.0625 70.3125V68.75C27.0625 68.3356 27.2271 67.9382 27.5201 67.6451C27.8132 67.3521 28.2106 67.1875 28.625 67.1875C29.0394 67.1875 29.4368 67.3521 29.7299 67.6451C30.0229 67.9382 30.1875 68.3356 30.1875 68.75V70.3125C30.1875 70.7269 30.0229 71.1243 29.7299 71.4173C29.4368 71.7104 29.0394 71.875 28.625 71.875ZM28.625 82.8125C28.2106 82.8125 27.8132 82.6479 27.5201 82.3548C27.2271 82.0618 27.0625 81.6644 27.0625 81.25V79.6875C27.0625 79.2731 27.2271 78.8757 27.5201 78.5826C27.8132 78.2896 28.2106 78.125 28.625 78.125C29.0394 78.125 29.4368 78.2896 29.7299 78.5826C30.0229 78.8757 30.1875 79.2731 30.1875 79.6875V81.25C30.1875 81.6644 30.0229 82.0618 29.7299 82.3548C29.4368 82.6479 29.0394 82.8125 28.625 82.8125ZM33.3125 57.8125C33.1069 57.8137 32.903 57.7743 32.7126 57.6965C32.5223 57.6187 32.3491 57.5042 32.2031 57.3594C32.0567 57.2141 31.9404 57.0413 31.8611 56.8509C31.7818 56.6605 31.7409 56.4563 31.7409 56.25C31.7409 56.0437 31.7818 55.8395 31.8611 55.6491C31.9404 55.4587 32.0567 55.2859 32.2031 55.1406L50.9531 36.3906C51.0984 36.2442 51.2712 36.1279 51.4616 36.0486C51.652 35.9693 51.8562 35.9284 52.0625 35.9284C52.2688 35.9284 52.473 35.9693 52.6634 36.0486C52.8538 36.1279 53.0266 36.2442 53.1719 36.3906L61.4375 44.625L82.1719 22.375C82.4609 22.1045 82.8418 21.9538 83.2377 21.9534C83.6336 21.9529 84.0148 22.1027 84.3045 22.3726C84.5942 22.6424 84.7706 23.0121 84.7982 23.407C84.8258 23.8019 84.7024 24.1925 84.4531 24.5L62.5781 47.9375C62.4324 48.0946 62.256 48.22 62.0598 48.306C61.8636 48.3921 61.6517 48.4368 61.4375 48.4375C61.013 48.4397 60.6041 48.2773 60.2969 47.9844L52.0625 39.7031L34.4219 57.3594C34.2759 57.5042 34.1027 57.6187 33.9124 57.6965C33.722 57.7743 33.5181 57.8137 33.3125 57.8125Z" fill="url(#paint5_linear_16_199)"/>
<path d="M83.3125 35.9375C82.8981 35.9375 82.5007 35.7729 82.2076 35.4799C81.9146 35.1868 81.75 34.7894 81.75 34.375V25H72.375C71.9606 25 71.5632 24.8354 71.2701 24.5424C70.9771 24.2493 70.8125 23.8519 70.8125 23.4375C70.8125 23.0231 70.9771 22.6257 71.2701 22.3326C71.5632 22.0396 71.9606 21.875 72.375 21.875H83.3125C83.7269 21.875 84.1243 22.0396 84.4174 22.3326C84.7104 22.6257 84.875 23.0231 84.875 23.4375V34.375C84.875 34.7894 84.7104 35.1868 84.4174 35.4799C84.1243 35.7729 83.7269 35.9375 83.3125 35.9375ZM88 84.375H42.6875C42.2731 84.375 41.8757 84.2104 41.5826 83.9174C41.2896 83.6243 41.125 83.2269 41.125 82.8125C41.125 82.3981 41.2896 82.0007 41.5826 81.7076C41.8757 81.4146 42.2731 81.25 42.6875 81.25H88C88.4144 81.25 88.8118 81.4146 89.1049 81.7076C89.3979 82.0007 89.5625 82.3981 89.5625 82.8125C89.5625 83.2269 89.3979 83.6243 89.1049 83.9174C88.8118 84.2104 88.4144 84.375 88 84.375Z" fill="url(#paint6_linear_16_199)"/>
<path d="M73.9375 82.8125C73.5231 82.8125 73.1257 82.6479 72.8326 82.3549C72.5396 82.0618 72.375 81.6644 72.375 81.25V54.9219C72.375 54.5075 72.5396 54.11 72.8326 53.817C73.1257 53.524 73.5231 53.3594 73.9375 53.3594C74.3519 53.3594 74.7493 53.524 75.0424 53.817C75.3354 54.11 75.5 54.5075 75.5 54.9219V81.25C75.5 81.6644 75.3354 82.0618 75.0424 82.3549C74.7493 82.6479 74.3519 82.8125 73.9375 82.8125ZM73.9375 50C73.5231 50 73.1257 49.8354 72.8326 49.5424C72.5396 49.2493 72.375 48.8519 72.375 48.4375V45.3125C72.375 44.8981 72.5396 44.5007 72.8326 44.2076C73.1257 43.9146 73.5231 43.75 73.9375 43.75C74.3519 43.75 74.7493 43.9146 75.0424 44.2076C75.3354 44.5007 75.5 44.8981 75.5 45.3125V48.4375C75.5 48.8519 75.3354 49.2493 75.0424 49.5424C74.7493 49.8354 74.3519 50 73.9375 50ZM61.4375 84.375C61.0231 84.375 60.6257 84.2104 60.3326 83.9174C60.0396 83.6243 59.875 83.2269 59.875 82.8125V67.1875C59.875 66.7731 60.0396 66.3757 60.3326 66.0826C60.6257 65.7896 61.0231 65.625 61.4375 65.625C61.8519 65.625 62.2493 65.7896 62.5424 66.0826C62.8354 66.3757 63 66.7731 63 67.1875V82.8125C63 83.2269 62.8354 83.6243 62.5424 83.9174C62.2493 84.2104 61.8519 84.375 61.4375 84.375ZM61.4375 62.5C61.0231 62.5 60.6257 62.3354 60.3326 62.0424C60.0396 61.7493 59.875 61.3519 59.875 60.9375V57.8125C59.875 57.3981 60.0396 57.0007 60.3326 56.7076C60.6257 56.4146 61.0231 56.25 61.4375 56.25C61.8519 56.25 62.2493 56.4146 62.5424 56.7076C62.8354 57.0007 63 57.3981 63 57.8125V60.9375C63 61.3519 62.8354 61.7493 62.5424 62.0424C62.2493 62.3354 61.8519 62.5 61.4375 62.5ZM48.9375 84.375C48.5231 84.375 48.1257 84.2104 47.8326 83.9174C47.5396 83.6243 47.375 83.2269 47.375 82.8125V75C47.375 74.5856 47.5396 74.1882 47.8326 73.8951C48.1257 73.6021 48.5231 73.4375 48.9375 73.4375C49.3519 73.4375 49.7493 73.6021 50.0424 73.8951C50.3354 74.1882 50.5 74.5856 50.5 75V82.8125C50.5 83.2269 50.3354 83.6243 50.0424 83.9174C49.7493 84.2104 49.3519 84.375 48.9375 84.375ZM48.9375 70.3125C48.5231 70.3125 48.1257 70.1479 47.8326 69.8549C47.5396 69.5618 47.375 69.1644 47.375 68.75V65.625C47.375 65.2106 47.5396 64.8132 47.8326 64.5201C48.1257 64.2271 48.5231 64.0625 48.9375 64.0625C49.3519 64.0625 49.7493 64.2271 50.0424 64.5201C50.3354 64.8132 50.5 65.2106 50.5 65.625V68.75C50.5 69.1644 50.3354 69.5618 50.0424 69.8549C49.7493 70.1479 49.3519 70.3125 48.9375 70.3125Z" fill="url(#paint7_linear_16_199)"/>
<defs>
<linearGradient id="paint0_linear_16_199" x1="27.8068" y1="15.2758" x2="12.4219" y2="22.2498" gradientUnits="userSpaceOnUse">
<stop stop-color="#FA754C"/>
<stop offset="0.947917" stop-color="#3ABFF8"/>
</linearGradient>
<linearGradient id="paint1_linear_16_199" x1="43.4318" y1="19.9633" x2="28.0469" y2="26.9373" gradientUnits="userSpaceOnUse">
<stop stop-color="#FA754C"/>
<stop offset="0.947917" stop-color="#3ABFF8"/>
</linearGradient>
<linearGradient id="paint2_linear_16_199" x1="29.7907" y1="33.3275" x2="26.7016" y2="33.4053" gradientUnits="userSpaceOnUse">
<stop stop-color="#FA754C"/>
<stop offset="0.947917" stop-color="#49ACE3"/>
</linearGradient>
<linearGradient id="paint3_linear_16_199" x1="37.9533" y1="68.2642" x2="15.1112" y2="74.8215" gradientUnits="userSpaceOnUse">
<stop stop-color="#FA754C"/>
<stop offset="0.947917" stop-color="#3ABFF8"/>
</linearGradient>
<linearGradient id="paint4_linear_16_199" x1="32.1222" y1="72.6063" x2="23.4152" y2="74.8264" gradientUnits="userSpaceOnUse">
<stop stop-color="#FA754C"/>
<stop offset="0.947917" stop-color="#49ACE3"/>
</linearGradient>
<linearGradient id="paint5_linear_16_199" x1="77.4708" y1="40.7287" x2="25.7408" y2="57.4141" gradientUnits="userSpaceOnUse">
<stop stop-color="#FA754C"/>
<stop offset="0.947917" stop-color="#3ABFF8"/>
</linearGradient>
<linearGradient id="paint6_linear_16_199" x1="83.4124" y1="41.1565" x2="38.6116" y2="52.9607" gradientUnits="userSpaceOnUse">
<stop stop-color="#FA754C"/>
<stop offset="0.947917" stop-color="#3ABFF8"/>
</linearGradient>
<linearGradient id="paint7_linear_16_199" x1="71.929" y1="56.283" x2="45.5699" y2="62.487" gradientUnits="userSpaceOnUse">
<stop stop-color="#FA754C"/>
<stop offset="0.947917" stop-color="#3ABFF8"/>
</linearGradient>
</defs>
</svg>
