<svg width="101" height="100" viewBox="0 0 101 100" fill="none" xmlns="http://www.w3.org/2000/svg">
<path d="M63.426 54.7031L87.3026 75.6475C87.471 75.7957 87.5977 75.9869 87.6686 76.1997L87.827 76.6747C88.5781 77.6209 88.9999 78.6596 88.9999 79.7667C88.9999 79.8959 88.9733 80.02 88.9632 80.1467C89.0164 80.4393 88.9543 80.7382 88.8048 81.0004C87.637 85.0651 80.7717 88 71.9 88C63.1017 88 56.2757 85.1133 55.0242 81.1005C55.0153 81.0878 54.9989 81.0827 54.99 81.0701L51 74.6595L47.0087 81.0701C47.0011 81.0827 46.9834 81.0878 46.9758 81.1005C45.7243 85.1133 38.8983 88 30.1 88C20.3518 88 13.0001 84.4609 13.0001 79.7667C13.0001 78.6596 13.4219 77.6209 14.173 76.6747L14.3314 76.1997C14.4023 75.9869 14.529 75.7957 14.6974 75.6475L38.574 54.7031L13.1914 13.9355C12.8595 13.4022 12.9684 12.7068 13.4472 12.3002C13.6841 12.1001 13.9754 12 14.2668 12C14.5644 12 14.8634 12.1051 15.1028 12.3141L51 43.8035L86.8972 12.3141C87.1367 12.1051 87.4356 12 87.7332 12C88.0246 12 88.3159 12.1001 88.5528 12.3002C89.0316 12.7068 89.1405 13.4022 88.8086 13.9355L63.426 54.7031ZM71.9 85.4667C80.1029 85.4667 85.9156 82.7243 86.4172 80.1277C86.421 80.0897 86.4261 80.0517 86.4299 80.0339C86.4299 80.0339 86.4311 80.0314 86.4311 80.0301C86.4425 79.9427 86.4666 79.8541 86.4666 79.7667C86.4666 79.2537 86.2475 78.7293 85.8371 78.2163C85.8079 78.1884 85.7699 78.1707 85.7421 78.139C84.8757 77.1257 83.2037 76.1073 80.8553 75.3435C80.854 75.3435 80.8527 75.3422 80.8502 75.3422C80.5753 75.2535 80.2891 75.1674 79.9952 75.0851C79.8837 75.0547 79.7685 75.0255 79.6545 74.9964C79.4353 74.9381 79.2162 74.8799 78.9869 74.8267C78.6171 74.7418 78.2383 74.662 77.8469 74.5885C77.7684 74.5733 77.6861 74.5619 77.6063 74.548C77.2643 74.4885 76.9159 74.4315 76.5587 74.3821C76.4485 74.3669 76.3358 74.3529 76.2243 74.339C75.8912 74.2959 75.5517 74.2579 75.2059 74.225C75.0767 74.2123 74.9488 74.1997 74.8183 74.1895C74.47 74.1604 74.1141 74.1376 73.7531 74.1186C73.6277 74.1123 73.5048 74.1034 73.3769 74.0983C72.8943 74.0793 72.4028 74.0667 71.9 74.0667C63.3158 74.0667 57.3333 77.0699 57.3333 79.7667C57.3333 82.4634 63.3158 85.4667 71.9 85.4667ZM30.1 85.4667C38.6842 85.4667 44.6667 82.4634 44.6667 79.7667C44.6667 77.0699 38.6842 74.0667 30.1 74.0667C29.5972 74.0667 29.1057 74.0793 28.6219 74.0983C28.4939 74.1034 28.3711 74.1123 28.2457 74.1186C27.8859 74.1376 27.53 74.1604 27.1804 74.1895C27.0499 74.1997 26.9207 74.2123 26.7928 74.225C26.447 74.2579 26.1075 74.2959 25.7744 74.339C25.6629 74.3529 25.5502 74.3669 25.44 74.3821C25.0828 74.4315 24.7345 74.4872 24.3925 74.548C24.3127 74.5619 24.2303 74.5746 24.1518 74.5885C23.7604 74.6607 23.3817 74.7405 23.0118 74.8267C22.7825 74.8799 22.5647 74.9381 22.3443 74.9964C22.2303 75.0255 22.115 75.0547 22.0035 75.0851C21.7097 75.1674 21.4234 75.2523 21.1485 75.3422C21.1473 75.3422 21.146 75.3435 21.1435 75.3435C18.7963 76.1073 17.1243 77.1257 16.2579 78.139C16.2301 78.1707 16.1921 78.1884 16.1617 78.2175C15.7526 78.7305 15.5334 79.2537 15.5334 79.7667C15.5334 82.4634 21.5159 85.4667 30.1 85.4667ZM22.2404 72.4023C23.9428 71.9969 25.8225 71.7246 27.834 71.6068C27.9151 71.6017 27.9949 71.5941 28.0759 71.5903C28.7397 71.5561 29.4123 71.5333 30.1 71.5333C30.6586 71.5333 31.2084 71.5485 31.7505 71.5713C31.9228 71.5777 32.09 71.5903 32.2597 71.5992C32.6321 71.6195 33.002 71.6448 33.3655 71.6765C33.5504 71.6917 33.7341 71.7094 33.9178 71.7284C34.2712 71.7639 34.6182 71.8057 34.9615 71.8513C35.1274 71.8741 35.2946 71.8943 35.4593 71.9184C35.8773 71.9805 36.2864 72.0501 36.688 72.1274C36.7627 72.1413 36.84 72.1527 36.9147 72.1679C37.3846 72.2604 37.8406 72.3643 38.2865 72.477C38.4195 72.5099 38.5449 72.5467 38.6754 72.5821C38.987 72.6657 39.2948 72.7519 39.5937 72.8456C39.7444 72.8925 39.8901 72.9406 40.037 72.9887C40.3119 73.0799 40.5792 73.1749 40.8414 73.275C40.9769 73.3269 41.115 73.3776 41.2467 73.4308C41.538 73.5486 41.818 73.6715 42.0903 73.7981C42.1752 73.8374 42.2651 73.8754 42.3487 73.9147C42.6945 74.0831 43.0251 74.2579 43.3392 74.4416C43.4241 74.491 43.5014 74.5442 43.5837 74.5949C43.8092 74.7329 44.027 74.8735 44.2335 75.0179C44.3348 75.0901 44.4298 75.1623 44.5261 75.2358C44.7034 75.3701 44.8719 75.5069 45.0327 75.6462C45.1214 75.7235 45.2088 75.7995 45.2924 75.878C45.4571 76.0338 45.6091 76.1921 45.7535 76.353C45.8117 76.4176 45.8751 76.4809 45.9308 76.5455C46.1132 76.7634 46.2804 76.9863 46.4248 77.2143L49.5066 72.2642L45.2075 65.3583L39.9306 56.8843L22.2404 72.4023ZM41.2936 54.2763L52.0767 71.5941L55.5752 77.2131C55.7196 76.9851 55.8868 76.7621 56.0692 76.5443C56.1237 76.4784 56.1883 76.4151 56.2465 76.3517C56.3909 76.1909 56.5429 76.0313 56.7076 75.8767C56.7912 75.7969 56.8799 75.7209 56.9685 75.6437C57.1294 75.5043 57.2979 75.3675 57.4739 75.2345C57.5715 75.1611 57.6665 75.0876 57.7678 75.0167C57.973 74.8723 58.1909 74.7317 58.4151 74.5949C58.4986 74.5442 58.5759 74.4897 58.662 74.4403C58.9749 74.2579 59.3055 74.0819 59.6513 73.9147C59.7362 73.8729 59.8286 73.8349 59.9148 73.7956C60.1858 73.6689 60.4632 73.5473 60.752 73.4308C60.8863 73.3776 61.0244 73.3257 61.1624 73.2737C61.4221 73.1749 61.6881 73.0799 61.9617 72.99C62.1099 72.9406 62.2581 72.8912 62.4101 72.8443C62.7065 72.7519 63.0118 72.6657 63.3208 72.5834C63.4526 72.5479 63.5818 72.5099 63.716 72.477C64.1606 72.3655 64.6154 72.2617 65.0853 72.1692C65.1613 72.154 65.2411 72.1426 65.3184 72.1274C65.7186 72.0514 66.1252 71.9817 66.5407 71.9197C66.7054 71.8956 66.8738 71.8753 67.041 71.8525C67.383 71.8069 67.7301 71.7651 68.0822 71.7297C68.2659 71.7107 68.4496 71.6929 68.6358 71.6777C68.9993 71.6461 69.3679 71.622 69.7403 71.6005C69.91 71.5916 70.0785 71.5789 70.2508 71.5726C70.7916 71.5485 71.3414 71.5333 71.9 71.5333C72.5877 71.5333 73.2603 71.5561 73.9228 71.5891C74.0039 71.5929 74.0837 71.6005 74.1647 71.6055C76.1762 71.7233 78.0559 71.9957 79.7583 72.401L60.9484 55.9001C60.9484 55.9001 60.9458 55.9001 60.9458 55.8989L50.164 46.4407L50.1627 46.4394L19.8667 19.8635L41.2936 54.2763ZM52.9215 45.4881L61.4956 53.0096L82.1333 19.8635L52.9215 45.4881Z" fill="url(#paint0_linear_16_197)"/>
<defs>
<linearGradient id="paint0_linear_16_197" x1="79.3503" y1="64.5536" x2="11.965" y2="41.6444" gradientUnits="userSpaceOnUse">
<stop stop-color="#FA754C"/>
<stop offset="0.947917" stop-color="#3ABFF8"/>
</linearGradient>
</defs>
</svg>
