<svg width="646" height="530" viewBox="0 0 646 530" fill="none" xmlns="http://www.w3.org/2000/svg">
<g clip-path="url(#clip0_2_4)">
<path d="M202.721 514.442H209.667L212.973 487.648H202.721V514.442Z" fill="#9E616A"/>
<path d="M200.454 509.684L211.551 509.021V513.776L222.102 521.063C222.624 521.423 223.016 521.94 223.223 522.539C223.429 523.137 223.439 523.786 223.25 524.391C223.062 524.996 222.685 525.524 222.175 525.9C221.665 526.275 221.048 526.477 220.415 526.477H207.202L204.925 521.774L204.036 526.477H199.054L200.454 509.684Z" fill="#2F2E41"/>
<path d="M115.658 508.54L122.112 511.109L135.092 487.438L125.567 483.646L115.658 508.54Z" fill="#9E616A"/>
<path d="M115.311 503.281L125.867 506.77L124.108 511.188L131.216 521.86C131.567 522.388 131.741 523.013 131.711 523.646C131.682 524.278 131.451 524.885 131.052 525.377C130.653 525.869 130.108 526.221 129.495 526.381C128.882 526.541 128.234 526.501 127.646 526.266L115.37 521.38L114.994 516.168L112.428 520.209L107.8 518.366L115.311 503.281Z" fill="#2F2E41"/>
<path d="M188.718 434.714L177.135 380.657L159.047 440.718L130.406 497.672L130.254 497.974L121.181 493.089C119.901 469.964 122.942 448.293 134.064 429.344L139.331 377.332C139.492 375.555 143.421 333.833 155.861 326.434L159.504 318.127L195.739 309.178L195.871 309.326C199.355 313.242 201.657 318.067 202.508 323.239L213.336 388.831L213.342 388.868L210.439 434.625L214.41 502.133H200.041C191.152 485.407 187.378 462.934 188.718 434.714Z" fill="#2F2E41"/>
<path d="M365.687 214.135C365.687 229.498 388.501 256.479 393.505 241.953C399.631 224.169 412.699 212.896 421.323 214.135C436.53 216.32 408.868 186.317 393.505 186.317C386.127 186.317 379.051 189.247 373.834 194.464C368.617 199.681 365.687 206.757 365.687 214.135V214.135Z" fill="#E6E6E6"/>
<path d="M359.843 127.015C356.236 141.949 372.298 154.833 387.661 154.833C391.315 154.833 394.932 154.114 398.307 152.716C401.682 151.318 404.749 149.269 407.332 146.686C409.915 144.103 411.964 141.036 413.362 137.661C414.76 134.286 415.48 130.668 415.48 127.015C415.48 111.652 394.772 112.816 387.661 99.1971C379.521 83.6064 367.598 94.9138 359.843 127.015Z" fill="#E6E6E6"/>
<path d="M231.291 125.847C231.291 133.224 234.222 140.3 239.439 145.517C244.656 150.734 251.731 153.665 259.109 153.665C274.473 153.665 287.374 141.204 286.927 125.847C285.992 93.6753 273.529 81.069 259.109 98.0284C249.157 109.733 231.291 110.483 231.291 125.847Z" fill="#E6E6E6"/>
<path d="M228.954 214.135C215.971 208.522 238.518 237.284 256.772 241.953C271.656 245.76 284.59 229.498 284.59 214.135C284.59 210.482 283.871 206.864 282.473 203.489C281.075 200.114 279.025 197.047 276.442 194.464C273.859 191.881 270.792 189.832 267.417 188.434C264.042 187.036 260.425 186.317 256.772 186.317C241.408 186.317 243.056 220.231 228.954 214.135Z" fill="#E6E6E6"/>
<path d="M608.775 35H37.225C36.6306 34.9916 36.0647 34.8299 35.6488 34.5495C35.2329 34.2691 35 33.8924 35 33.5C35 33.1076 35.2329 32.7309 35.6488 32.4505C36.0647 32.1701 36.6306 32.0084 37.225 32H608.775C609.369 32.0084 609.935 32.1701 610.351 32.4505C610.767 32.7309 611 33.1076 611 33.5C611 33.8924 610.767 34.2691 610.351 34.5495C609.935 34.8299 609.369 34.9916 608.775 35V35Z" fill="#CACACA"/>
<path d="M44.6152 21.6469C50.4625 21.6469 55.2027 16.8011 55.2027 10.8235C55.2027 4.84582 50.4625 0 44.6152 0C38.7679 0 34.0277 4.84582 34.0277 10.8235C34.0277 16.8011 38.7679 21.6469 44.6152 21.6469Z" fill="#3F3D56"/>
<path d="M81.1902 21.6469C87.0376 21.6469 91.7777 16.8011 91.7777 10.8235C91.7777 4.84582 87.0376 0 81.1902 0C75.3429 0 70.6027 4.84582 70.6027 10.8235C70.6027 16.8011 75.3429 21.6469 81.1902 21.6469Z" fill="#3F3D56"/>
<path d="M117.765 21.6469C123.613 21.6469 128.353 16.8011 128.353 10.8235C128.353 4.84582 123.613 0 117.765 0C111.918 0 107.178 4.84582 107.178 10.8235C107.178 16.8011 111.918 21.6469 117.765 21.6469Z" fill="#3F3D56"/>
<path d="M600.963 2.68268H574.982C574.467 2.69287 573.976 2.90461 573.616 3.27243C573.255 3.64025 573.053 4.13482 573.053 4.64992C573.053 5.16502 573.255 5.65957 573.616 6.02739C573.976 6.39521 574.467 6.60695 574.982 6.61714H600.963C601.478 6.60695 601.968 6.39521 602.329 6.02739C602.689 5.65957 602.891 5.16502 602.891 4.64992C602.891 4.13482 602.689 3.64025 602.329 3.27243C601.968 2.90461 601.478 2.69287 600.963 2.68268H600.963Z" fill="#3F3D56"/>
<path d="M600.963 10.0671H574.982C574.467 10.0773 573.976 10.2891 573.616 10.6569C573.255 11.0247 573.053 11.5192 573.053 12.0343C573.053 12.5494 573.255 13.0439 573.616 13.4117C573.976 13.7795 574.467 13.9913 574.982 14.0015H600.963C601.478 13.9913 601.968 13.7795 602.329 13.4117C602.689 13.0439 602.891 12.5494 602.891 12.0343C602.891 11.5192 602.689 11.0247 602.329 10.6569C601.968 10.2891 601.478 10.0773 600.963 10.0671H600.963Z" fill="#3F3D56"/>
<path d="M600.963 17.4417H574.982C574.467 17.452 573.976 17.6638 573.616 18.0316C573.255 18.3994 573.053 18.8939 573.053 19.409C573.053 19.924 573.255 20.4186 573.616 20.7864C573.976 21.1542 574.467 21.366 574.982 21.3762H600.963C601.478 21.366 601.968 21.1542 602.329 20.7864C602.689 20.4186 602.891 19.924 602.891 19.409C602.891 18.8939 602.689 18.3994 602.329 18.0316C601.968 17.6638 601.478 17.452 600.963 17.4417H600.963Z" fill="#3F3D56"/>
<path d="M390.392 114.39H353.182C352.409 114.39 351.643 114.542 350.929 114.838C350.214 115.134 349.565 115.568 349.018 116.114C348.472 116.661 348.038 117.31 347.742 118.025C347.446 118.739 347.294 119.505 347.294 120.278V157.488C347.294 159.05 347.914 160.548 349.018 161.652C350.123 162.757 351.621 163.377 353.182 163.377H390.392C391.954 163.377 393.452 162.757 394.556 161.652C395.661 160.548 396.281 159.05 396.281 157.488V120.278C396.281 118.717 395.661 117.219 394.556 116.114C393.452 115.01 391.954 114.39 390.392 114.39ZM383.405 126.952H379.138C376.225 126.952 375.658 128.332 375.658 130.368V134.687H382.606L381.704 141.468H375.645V159.15C373.054 159.636 370.395 159.63 367.807 159.131V141.468H362.25V134.687H367.91V129.672C367.91 123.678 372.074 120.403 377.436 120.403C380.015 120.403 382.774 120.597 383.405 120.687V126.952Z" fill="#3ABFF8"/>
<path d="M297.316 114.39H260.106C258.544 114.39 257.046 115.01 255.942 116.114C254.838 117.219 254.217 118.717 254.217 120.278V157.488C254.217 159.05 254.838 160.548 255.942 161.652C257.046 162.757 258.544 163.377 260.106 163.377H297.316C298.878 163.377 300.376 162.757 301.48 161.652C302.584 160.548 303.205 159.05 303.205 157.488V120.278C303.205 118.717 302.584 117.219 301.48 116.114C300.376 115.01 298.878 114.39 297.316 114.39V114.39ZM278.711 151.947C276.127 151.947 273.602 151.181 271.453 149.745C269.305 148.31 267.631 146.27 266.642 143.883C265.653 141.495 265.395 138.869 265.899 136.335C266.403 133.801 267.647 131.473 269.474 129.646C271.301 127.819 273.628 126.575 276.162 126.071C278.696 125.567 281.323 125.826 283.71 126.814C286.097 127.803 288.137 129.478 289.573 131.626C291.008 133.774 291.774 136.3 291.774 138.883C291.774 142.348 290.398 145.671 287.948 148.121C285.498 150.57 282.176 151.947 278.711 151.947H278.711ZM293.407 125.82C292.761 125.82 292.13 125.629 291.593 125.27C291.056 124.911 290.637 124.401 290.39 123.804C290.143 123.207 290.078 122.551 290.204 121.917C290.33 121.284 290.641 120.702 291.098 120.245C291.555 119.788 292.137 119.477 292.77 119.351C293.404 119.225 294.06 119.29 294.657 119.537C295.254 119.784 295.764 120.203 296.123 120.74C296.481 121.277 296.673 121.908 296.673 122.554C296.673 123.42 296.329 124.251 295.716 124.863C295.104 125.476 294.273 125.82 293.407 125.82H293.407Z" fill="#3ABFF8"/>
<path d="M399.357 202.277C400.418 202.284 401.465 202.524 402.423 202.98C403.381 203.436 404.228 204.096 404.903 204.914C405.579 205.733 406.067 206.689 406.332 207.716C406.598 208.744 406.636 209.817 406.442 210.86L420.345 219.906L416.908 229.696L397.454 216.645C395.723 216.203 394.214 215.142 393.213 213.662C392.212 212.182 391.789 210.387 392.023 208.616C392.258 206.844 393.134 205.221 394.486 204.053C395.837 202.884 397.57 202.252 399.357 202.277V202.277Z" fill="#FFB6B6"/>
<path d="M404.309 226.064L414.231 214.608L427.053 220.554L453.254 241.406C456.689 241.807 482.753 245.171 482.274 254.743C482.262 255.861 482.008 256.964 481.53 257.975C481.052 258.987 480.36 259.882 479.503 260.601C475.389 263.997 468.26 263.033 467.994 262.994L450.936 262.14C450.044 262.355 440.785 264.482 435.884 261.438C434.397 260.515 404.309 226.064 404.309 226.064Z" fill="#3F3D56"/>
<path d="M432.925 518.689L424.798 518.688L420.932 487.341H432.926L432.925 518.689Z" fill="#FFB6B6"/>
<path d="M434.998 526.567L408.792 526.566V526.234C408.793 523.529 409.867 520.935 411.78 519.022C413.693 517.109 416.287 516.035 418.992 516.034H418.993L423.78 512.403L432.711 516.035L434.998 516.035L434.998 526.567Z" fill="#2F2E41"/>
<path d="M522.127 512.328L514.293 514.492L502.22 485.305L513.782 482.112L522.127 512.328Z" fill="#FFB6B6"/>
<path d="M526.223 519.37L500.963 526.346L500.875 526.027C500.155 523.419 500.5 520.633 501.834 518.28C503.169 515.927 505.383 514.2 507.991 513.48L507.991 513.479L511.638 508.705L521.214 509.828L523.419 509.219L526.223 519.37Z" fill="#2F2E41"/>
<path d="M433.283 328.979L494.694 332.112L494.714 332.168C498.392 342.386 499.251 353.406 497.2 364.07V364.07L499.08 379.736L508.48 428.614L521.012 491.278C521.012 491.278 537.305 495.664 515.999 503.184C494.694 510.704 499.08 506.317 502.213 500.677C505.346 495.038 486.861 431.434 486.861 431.434L464.302 380.676L442.369 433.314L439.863 491.591C439.863 491.591 446.443 499.424 427.643 502.557C408.844 505.69 409.784 499.737 414.171 495.351C418.557 490.964 422.317 432.687 422.317 432.687L426.704 377.543C426.704 377.543 425.45 345.585 433.283 328.979Z" fill="#2F2E41"/>
<path d="M493.331 257.388L488.393 244.437L472.493 228.776L452.355 227.195L437.556 240.446L433.371 253.628C438.86 279.044 438.747 302.452 430.97 325.13C430.417 326.698 430.213 328.367 430.373 330.022C430.532 331.677 431.05 333.277 431.891 334.71C432.732 336.144 433.875 337.377 435.242 338.324C436.609 339.27 438.165 339.907 439.803 340.19C462.616 344.024 505.096 349.772 502.17 338.829C498.3 324.353 484.833 293.195 489.822 276.72C491.637 270.996 492.779 265.079 493.226 259.091L493.331 257.388Z" fill="#3F3D56"/>
<path d="M459.038 222.141C468.964 222.141 477.011 214.095 477.011 204.169C477.011 194.243 468.964 186.197 459.038 186.197C449.113 186.197 441.066 194.243 441.066 204.169C441.066 214.095 449.113 222.141 459.038 222.141Z" fill="#FFB6B6"/>
<path d="M454.134 221.197L467.833 220.499C469.589 220.409 471.505 220.254 472.781 219.046C473.468 218.3 473.997 217.422 474.334 216.466C475.601 213.524 476.867 210.582 478.102 207.627C479.809 203.538 481.485 199.222 481.05 194.813C480.947 192.799 480.103 190.895 478.679 189.468C477.953 188.78 477.019 188.352 476.023 188.251C475.028 188.151 474.027 188.382 473.178 188.91C472.966 187.516 472.441 186.188 471.641 185.026C470.841 183.864 469.787 182.9 468.56 182.206C466.081 180.836 463.25 180.236 460.428 180.482C456.334 180.746 452.425 182.286 449.251 184.887C448.359 185.71 447.406 186.465 446.4 187.146C445.894 187.484 445.325 187.716 444.726 187.827C444.128 187.937 443.514 187.925 442.92 187.79C442.332 187.633 441.821 187.268 441.482 186.764C441.142 186.259 440.996 185.649 441.071 185.045C440.107 185.766 439.445 186.821 439.216 188.004C438.987 189.187 439.206 190.412 439.832 191.442C439.121 191.74 438.345 191.849 437.579 191.758C436.813 191.668 436.084 191.381 435.462 190.925C434.796 191.256 434.206 191.722 433.73 192.294C433.254 192.866 432.903 193.53 432.699 194.246C432.495 194.961 432.443 195.711 432.545 196.448C432.648 197.185 432.903 197.892 433.295 198.525C433.687 199.157 434.207 199.701 434.821 200.121C435.435 200.541 436.13 200.828 436.861 200.964C437.592 201.099 438.344 201.081 439.068 200.91C439.792 200.738 440.472 200.417 441.065 199.968C441.896 201.133 441.587 202.715 441.478 204.142C441.37 205.569 441.753 207.342 443.128 207.736C444.988 208.27 446.494 205.766 448.428 205.792C448.905 205.831 449.366 205.987 449.768 206.246C450.17 206.506 450.503 206.86 450.735 207.279C451.191 208.12 451.503 209.031 451.658 209.975L454.134 221.12" fill="#2F2E41"/>
<path d="M362.369 249.793C355.526 249.798 348.829 247.812 343.093 244.079L340.207 242.203L343.628 242.583C344.524 242.682 345.49 242.741 346.497 242.755C351.109 242.758 355.624 241.432 359.501 238.933C357.197 238.434 355.064 237.342 353.311 235.766C351.559 234.189 350.249 232.182 349.511 229.944L349.083 228.623L350.445 228.89C351.063 229.013 351.691 229.083 352.321 229.102C350.163 227.991 348.351 226.308 347.085 224.238C345.818 222.167 345.145 219.788 345.139 217.36V215.962L346.357 216.5C347.079 216.906 347.843 217.232 348.637 217.469C346.76 215.363 345.594 212.719 345.305 209.913C345.017 207.107 345.619 204.281 347.028 201.836L347.623 200.81L348.369 201.731C353.805 208.457 361.594 212.866 370.158 214.065C370.393 214.098 370.633 214.081 370.86 214.013C371.087 213.945 371.297 213.829 371.476 213.672C371.658 213.514 371.804 213.318 371.904 213.099C372.004 212.879 372.055 212.641 372.055 212.399C372.035 209.789 372.793 207.232 374.231 205.054C375.67 202.876 377.725 201.176 380.133 200.17C382.542 199.164 385.196 198.899 387.756 199.407C390.316 199.915 392.667 201.174 394.509 203.024C397.03 202.473 399.447 201.524 401.668 200.212L403.542 199.102L402.859 201.171C402.226 203.089 401.164 204.838 399.754 206.285C401.005 205.96 402.229 205.535 403.412 205.015L405.952 203.899L404.422 206.213C402.801 208.668 400.776 210.83 398.432 212.609V213.789C398.432 231.487 384.97 249.793 362.442 249.793L362.369 249.793Z" fill="#3ABFF8"/>
<path d="M378.508 237.191C379.568 237.148 380.625 237.337 381.604 237.746C382.583 238.155 383.461 238.774 384.175 239.559C384.889 240.344 385.423 241.276 385.738 242.289C386.053 243.302 386.142 244.372 385.999 245.424L400.321 253.789L397.36 263.733L377.3 251.635C375.55 251.277 373.991 250.29 372.92 248.86C371.849 247.43 371.34 245.657 371.489 243.877C371.638 242.096 372.434 240.432 373.728 239.2C375.022 237.968 376.723 237.253 378.508 237.192V237.191Z" fill="#FFB6B6"/>
<path d="M395.372 268.409L384.675 256.833L392.091 245.746L400.083 252.451L408.821 254.542L421.151 259.217C422.868 256.215 436.187 233.56 444.803 237.755C445.828 238.205 446.743 238.871 447.485 239.708C448.228 240.545 448.78 241.532 449.105 242.603C450.615 247.719 446.932 253.898 446.791 254.128L439.315 269.483C439.163 270.388 437.487 279.74 432.764 283.054C432.097 283.542 431.335 283.886 430.528 284.064C429.72 284.243 428.885 284.252 428.074 284.09C413.399 281.315 403.058 277.023 397.781 271.563C396.851 270.615 396.042 269.556 395.372 268.409V268.409Z" fill="#3F3D56"/>
<path d="M205.092 223.654C203.445 220.113 206.058 216.159 206.991 212.346C208.731 205.231 203.828 197.528 197.181 195.063C190.535 192.598 182.897 194.658 177.188 198.972C171.591 203.201 167.656 205.193 163.801 211.169C162.508 213.172 161.139 219.393 160.895 221.793C160.65 224.193 161.891 226.942 164.155 227.469C163.938 227.897 163.843 228.376 163.88 228.855C163.916 229.333 164.084 229.793 164.363 230.183C164.643 230.573 165.024 230.879 165.466 231.067C165.907 231.255 166.392 231.319 166.867 231.251C171.199 230.414 179.157 232.715 179.157 232.715C186.576 233.14 193.995 233.564 201.414 233.989C203.315 234.098 205.288 234.197 206.996 233.147C207.468 232.87 207.875 232.494 208.189 232.045C208.503 231.597 208.715 231.085 208.813 230.546C209.247 227.736 206.227 226.096 205.092 223.654Z" fill="#2F2E41"/>
<path d="M210.694 254.643L209.071 265.449L206.496 282.57L206.06 288.913L202.856 335.406L194.032 342.193C188.923 346.124 182.546 348.035 176.117 347.563C169.689 347.092 163.659 344.27 159.179 339.636L148.463 334.477C154.206 328.828 153.138 302.644 153.138 302.644L153.074 251.217L167.599 246.333L172.383 236.914H189.547L193.838 246.926L201.626 250.488L205.173 252.118L210.694 254.643Z" fill="#E6E6E6"/>
<path d="M181.674 232.084C189.689 232.084 196.186 225.587 196.186 217.572C196.186 209.557 189.689 203.06 181.674 203.06C173.659 203.06 167.162 209.557 167.162 217.572C167.162 225.587 173.659 232.084 181.674 232.084Z" fill="#9E616A"/>
<path d="M173.383 213.02C169.549 213.026 165.807 211.845 162.67 209.64L162.566 209.567C162.566 207.713 162.931 205.878 163.64 204.165C164.35 202.452 165.389 200.896 166.7 199.586C168.011 198.275 169.567 197.235 171.28 196.526C172.992 195.816 174.828 195.451 176.681 195.451H182.443C184.285 195.453 186.108 195.818 187.808 196.526C189.508 197.234 191.052 198.269 192.351 199.574C193.651 200.879 194.68 202.428 195.38 204.131C196.08 205.834 196.437 207.659 196.431 209.5C196.419 210.341 196.08 211.144 195.485 211.738C194.89 212.331 194.086 212.67 193.246 212.68L173.714 213.017C173.603 213.019 173.493 213.02 173.383 213.02Z" fill="#2F2E41"/>
<path d="M215.862 284.477L202.717 284.585L201.751 307.982L191.071 321.058C189.771 321.276 188.558 321.85 187.564 322.715C186.57 323.58 185.835 324.703 185.439 325.96C185.044 327.217 185.003 328.558 185.322 329.837C185.641 331.115 186.308 332.28 187.247 333.204C188.187 334.127 189.364 334.773 190.648 335.07C191.931 335.367 193.272 335.303 194.522 334.885C195.771 334.468 196.881 333.713 197.729 332.705C198.577 331.696 199.129 330.473 199.325 329.17L214.038 308.773L215.862 284.477Z" fill="#9E616A"/>
<path d="M146.551 285.177L133.076 278.878L118.361 297.094L101.993 301.234C100.82 300.635 99.5031 300.373 98.1896 300.476C96.876 300.579 95.6165 301.043 94.55 301.817C93.4836 302.59 92.6518 303.644 92.1465 304.861C91.6412 306.077 91.4821 307.41 91.6867 308.712C91.8914 310.013 92.4518 311.233 93.3061 312.236C94.1604 313.239 95.2753 313.987 96.5277 314.396C97.7801 314.805 99.1212 314.86 100.403 314.555C101.685 314.25 102.857 313.596 103.791 312.667L127.759 305.05L146.551 285.177Z" fill="#9E616A"/>
<path d="M188.935 230.964L193.959 224.696C194.502 224.147 194.855 223.439 194.968 222.675C194.994 221.908 194.272 221.088 193.544 221.328C192.868 221.551 188.974 211.795 188.263 211.797C187.525 211.799 187.284 210.816 187.275 210.078C187.24 207.284 189.511 210.285 190.262 207.593C191.013 204.901 193.94 207.215 196.463 206.013C198.986 204.811 202.414 205.357 203.974 207.676C205.13 209.395 205.087 211.629 204.934 213.696C204.578 218.491 203.856 223.252 202.775 227.938C202.51 229.089 202.115 230.375 201.054 230.895C200.47 231.126 199.841 231.22 199.215 231.17L191.479 231.132" fill="#2F2E41"/>
<path d="M200.989 204.017C204.939 204.017 208.141 200.815 208.141 196.865C208.141 192.916 204.939 189.714 200.989 189.714C197.04 189.714 193.838 192.916 193.838 196.865C193.838 200.815 197.04 204.017 200.989 204.017Z" fill="#2F2E41"/>
<path d="M217.073 284.251C216.301 285.595 214.656 286.131 213.154 286.546C211.123 287.111 210.53 287.683 208.499 288.248C207.69 288.477 206.875 288.706 206.06 288.913C204.721 289.274 203.363 289.553 201.991 289.75C200.839 289.915 199.48 289.915 198.729 289.021C198.231 288.253 198.03 287.33 198.164 286.425C198.458 275.44 198.753 264.455 199.051 253.47L199.673 253.685C199.954 253.5 200.245 253.333 200.546 253.184C201.978 252.455 203.567 252.089 205.173 252.118C206.092 252.126 207.005 252.268 207.883 252.54C209.247 252.973 210.499 253.698 211.554 254.663C212.608 255.629 213.44 256.813 213.991 258.133C214.704 260.125 215.044 262.232 214.992 264.348C214.999 264.67 214.999 264.991 215.006 265.313C215.049 268.059 213.655 270.806 213.698 273.552C213.665 274.325 213.772 275.098 214.012 275.833C214.298 276.563 214.856 277.17 215.071 277.929C215.285 278.679 214.935 279.709 214.155 279.767C214.706 279.708 215.262 279.803 215.762 280.04C216.263 280.278 216.687 280.65 216.989 281.114C217.291 281.578 217.459 282.117 217.474 282.67C217.489 283.224 217.35 283.771 217.073 284.251V284.251Z" fill="#E6E6E6"/>
<path d="M153.134 251.28C154.564 251.366 155.957 251.766 157.215 252.453C158.472 253.14 159.562 254.095 160.408 255.252C161.253 256.409 161.833 257.738 162.106 259.144C162.378 260.551 162.337 262 161.985 263.389C161.237 265.709 160.062 267.869 158.52 269.757L153.713 276.447C153.226 277.046 152.851 277.729 152.606 278.463C152.404 279.221 152.484 280.044 152.207 280.778C151.93 281.513 151.038 282.129 150.375 281.708C150.852 281.989 151.243 282.396 151.503 282.885C151.763 283.374 151.883 283.925 151.85 284.478C151.816 285.03 151.631 285.563 151.313 286.017C150.996 286.471 150.56 286.828 150.052 287.05C148.626 287.672 146.988 287.117 145.534 286.561L139.631 284.302C137.532 283.553 135.487 282.661 133.509 281.633C132.487 281.072 131.396 280.265 131.324 279.101C131.267 278.196 132.033 277.5 132.417 276.678C137.224 266.386 144.293 258.196 153.074 251.217L153.134 251.28Z" fill="#E6E6E6"/>
<path d="M160.04 313.236C160.04 307.481 155.798 302.844 150.493 302.844C143.388 302.503 136.16 302.381 128.768 302.381H126.463C119.085 302.381 111.83 302.503 104.738 302.844C99.5146 302.844 95.2732 307.495 95.2732 313.264C94.9459 317.832 94.8095 322.387 94.8231 326.902C94.8368 331.416 94.9459 336.025 95.2595 340.54C95.2595 346.308 99.5009 350.986 104.724 350.986C112.171 351.327 119.821 351.477 127.595 351.477C135.369 351.477 143.006 351.341 150.48 350.986C155.716 350.986 160.026 346.308 160.026 340.54C160.326 335.971 160.476 331.416 160.462 326.833C160.449 322.251 160.34 317.723 160.04 313.195L160.04 313.236ZM121.403 339.517V314.341L139.978 326.915L121.403 339.517Z" fill="#3ABFF8"/>
<path d="M599.941 529.229L-42.8093 529.537C-43.1245 529.536 -43.4265 529.41 -43.649 529.187C-43.8716 528.964 -43.9966 528.661 -43.9966 528.346C-43.9966 528.031 -43.8716 527.728 -43.649 527.505C-43.4265 527.282 -43.1245 527.156 -42.8093 527.155L599.941 526.848C600.256 526.849 600.558 526.975 600.78 527.198C601.003 527.421 601.128 527.723 601.128 528.039C601.128 528.354 601.003 528.656 600.78 528.879C600.558 529.103 600.256 529.228 599.941 529.229V529.229Z" fill="#CACACA"/>
</g>
<defs>
<clipPath id="clip0_2_4">
<rect width="645.131" height="529.537" fill="white"/>
</clipPath>
</defs>
</svg>
